<svg width="167" height="167" viewBox="0 0 167 167" fill="none" xmlns="http://www.w3.org/2000/svg">
<path d="M0 28C0 12.536 12.536 0 28 0H139C154.464 0 167 12.536 167 28V139C167 154.464 154.464 167 139 167H28C12.536 167 0 154.464 0 139V28Z" fill="#333333"/>
<path d="M39.224 131.584C30.776 131.584 23.72 128.272 18.056 121.648L23.816 114.448L24.824 113.296L25.544 113.872C25.64 114.736 25.832 115.504 26.12 116.176C26.504 116.848 27.32 117.712 28.568 118.768C30.2 120.016 31.832 120.976 33.464 121.648C35.192 122.32 37.112 122.656 39.224 122.656C44.024 122.656 47.528 120.976 49.736 117.616C51.944 114.256 53.048 108.4 53.048 100.048V48.784H35.768V40.288H76.808V48.784H62.984V99.904C63.272 107.584 62.264 113.776 59.96 118.48C57.752 123.088 54.776 126.448 51.032 128.56C47.384 130.576 43.448 131.584 39.224 131.584ZM92.504 40.288H104.312V41.296C103.736 41.872 103.352 42.496 103.16 43.168C103.064 43.84 103.016 44.992 103.016 46.624V121.36H146.216V130H92.504V40.288Z" fill="white"/>
</svg>
